<mxfile host="Electron" agent="Mozilla/5.0 (X11; Linux x86_64) AppleWebKit/537.36 (KHTML, like Gecko) draw.io/24.7.8 Chrome/128.0.6613.36 Electron/32.0.1 Safari/537.36" version="24.7.8">
  <diagram name="Página-1" id="SP0r9rT1MacZyqRixD2W">
    <mxGraphModel dx="4292" dy="2195" grid="1" gridSize="10" guides="1" tooltips="1" connect="1" arrows="1" fold="1" page="1" pageScale="1" pageWidth="827" pageHeight="1169" math="0" shadow="0">
      <root>
        <mxCell id="0" />
        <mxCell id="1" parent="0" />
        <mxCell id="_EmFWARxrRoBnIJLhe-P-1" value="INICIO DA CRIAÇÃO DO PEDIDO" style="ellipse;whiteSpace=wrap;html=1;" vertex="1" parent="1">
          <mxGeometry x="323.25" y="70" width="206" height="80" as="geometry" />
        </mxCell>
        <mxCell id="_EmFWARxrRoBnIJLhe-P-14" style="edgeStyle=orthogonalEdgeStyle;rounded=0;orthogonalLoop=1;jettySize=auto;html=1;exitX=0;exitY=0.5;exitDx=0;exitDy=0;exitPerimeter=0;entryX=0.5;entryY=0;entryDx=0;entryDy=0;" edge="1" parent="1" source="_EmFWARxrRoBnIJLhe-P-8" target="_EmFWARxrRoBnIJLhe-P-9">
          <mxGeometry relative="1" as="geometry" />
        </mxCell>
        <mxCell id="_EmFWARxrRoBnIJLhe-P-37" style="edgeStyle=orthogonalEdgeStyle;rounded=0;orthogonalLoop=1;jettySize=auto;html=1;exitX=1;exitY=0.5;exitDx=0;exitDy=0;exitPerimeter=0;entryX=0.5;entryY=0;entryDx=0;entryDy=0;" edge="1" parent="1" source="_EmFWARxrRoBnIJLhe-P-8" target="_EmFWARxrRoBnIJLhe-P-36">
          <mxGeometry relative="1" as="geometry" />
        </mxCell>
        <mxCell id="_EmFWARxrRoBnIJLhe-P-8" value="ATENDENTE:&lt;div&gt;Tipo do pedido&lt;/div&gt;" style="strokeWidth=2;html=1;shape=mxgraph.flowchart.decision;whiteSpace=wrap;" vertex="1" parent="1">
          <mxGeometry x="361.38" y="460" width="130.5" height="100" as="geometry" />
        </mxCell>
        <mxCell id="_EmFWARxrRoBnIJLhe-P-9" value="&lt;div&gt;&lt;br&gt;&lt;/div&gt;Data e hora da entrega" style="html=1;strokeWidth=2;shape=manualInput;whiteSpace=wrap;rounded=1;size=26;arcSize=11;" vertex="1" parent="1">
          <mxGeometry x="223.63" y="535" width="100" height="70" as="geometry" />
        </mxCell>
        <mxCell id="_EmFWARxrRoBnIJLhe-P-10" value="&lt;div&gt;&lt;br&gt;&lt;/div&gt;endereço de entrega" style="html=1;strokeWidth=2;shape=manualInput;whiteSpace=wrap;rounded=1;size=26;arcSize=11;" vertex="1" parent="1">
          <mxGeometry x="-5" y="978" width="106" height="60" as="geometry" />
        </mxCell>
        <mxCell id="_EmFWARxrRoBnIJLhe-P-11" value="destinatário" style="html=1;strokeWidth=2;shape=manualInput;whiteSpace=wrap;rounded=1;size=26;arcSize=11;" vertex="1" parent="1">
          <mxGeometry x="159.5" y="1340" width="101" height="60" as="geometry" />
        </mxCell>
        <mxCell id="_EmFWARxrRoBnIJLhe-P-15" value="&lt;div&gt;&lt;br&gt;&lt;/div&gt;produtos e quantidades" style="html=1;strokeWidth=2;shape=manualInput;whiteSpace=wrap;rounded=1;size=26;arcSize=11;" vertex="1" parent="1">
          <mxGeometry x="376.63" y="710" width="100" height="60" as="geometry" />
        </mxCell>
        <mxCell id="_EmFWARxrRoBnIJLhe-P-16" value="&quot;Agendado&quot;" style="text;html=1;align=center;verticalAlign=middle;resizable=0;points=[];autosize=1;strokeColor=none;fillColor=none;" vertex="1" parent="1">
          <mxGeometry x="282.13" y="485" width="90" height="30" as="geometry" />
        </mxCell>
        <mxCell id="_EmFWARxrRoBnIJLhe-P-17" value="&lt;div&gt;&lt;br&gt;&lt;/div&gt;&lt;div&gt;&lt;span style=&quot;background-color: initial;&quot;&gt;Informações do cliente solicitante&lt;/span&gt;&lt;br&gt;&lt;/div&gt;" style="html=1;strokeWidth=2;shape=manualInput;whiteSpace=wrap;rounded=1;size=26;arcSize=11;" vertex="1" parent="1">
          <mxGeometry x="223.25" y="300" width="114" height="80" as="geometry" />
        </mxCell>
        <mxCell id="_EmFWARxrRoBnIJLhe-P-23" style="edgeStyle=orthogonalEdgeStyle;rounded=0;orthogonalLoop=1;jettySize=auto;html=1;exitX=0;exitY=0.5;exitDx=0;exitDy=0;exitPerimeter=0;entryX=0.5;entryY=0;entryDx=0;entryDy=0;" edge="1" parent="1" source="_EmFWARxrRoBnIJLhe-P-21" target="_EmFWARxrRoBnIJLhe-P-17">
          <mxGeometry relative="1" as="geometry" />
        </mxCell>
        <mxCell id="_EmFWARxrRoBnIJLhe-P-21" value="ATENDENTE:&lt;div&gt;Inserir cliente já cadastrado&lt;/div&gt;" style="strokeWidth=2;html=1;shape=mxgraph.flowchart.decision;whiteSpace=wrap;fillColor=#dae8fc;strokeColor=#6c8ebf;" vertex="1" parent="1">
          <mxGeometry x="353.25" y="210" width="146" height="100" as="geometry" />
        </mxCell>
        <mxCell id="_EmFWARxrRoBnIJLhe-P-26" style="edgeStyle=orthogonalEdgeStyle;rounded=0;orthogonalLoop=1;jettySize=auto;html=1;exitX=0.5;exitY=1;exitDx=0;exitDy=0;exitPerimeter=0;entryX=0.5;entryY=0;entryDx=0;entryDy=0;entryPerimeter=0;" edge="1" parent="1" source="_EmFWARxrRoBnIJLhe-P-22" target="_EmFWARxrRoBnIJLhe-P-8">
          <mxGeometry relative="1" as="geometry">
            <mxPoint x="426.25" y="630" as="targetPoint" />
          </mxGeometry>
        </mxCell>
        <mxCell id="_EmFWARxrRoBnIJLhe-P-22" value="" style="verticalLabelPosition=bottom;verticalAlign=top;html=1;shape=mxgraph.flowchart.or;" vertex="1" parent="1">
          <mxGeometry x="410.75" y="390" width="31" height="30" as="geometry" />
        </mxCell>
        <mxCell id="_EmFWARxrRoBnIJLhe-P-25" style="edgeStyle=orthogonalEdgeStyle;rounded=0;orthogonalLoop=1;jettySize=auto;html=1;exitX=0.5;exitY=1;exitDx=0;exitDy=0;entryX=0;entryY=0.5;entryDx=0;entryDy=0;entryPerimeter=0;" edge="1" parent="1" source="_EmFWARxrRoBnIJLhe-P-17" target="_EmFWARxrRoBnIJLhe-P-22">
          <mxGeometry relative="1" as="geometry">
            <mxPoint x="426.25" y="550" as="targetPoint" />
          </mxGeometry>
        </mxCell>
        <mxCell id="_EmFWARxrRoBnIJLhe-P-27" value="Não" style="text;html=1;align=center;verticalAlign=middle;resizable=0;points=[];autosize=1;strokeColor=none;fillColor=none;" vertex="1" parent="1">
          <mxGeometry x="313.25" y="220" width="50" height="30" as="geometry" />
        </mxCell>
        <mxCell id="_EmFWARxrRoBnIJLhe-P-28" value="Sim" style="text;html=1;align=center;verticalAlign=middle;resizable=0;points=[];autosize=1;strokeColor=none;fillColor=none;" vertex="1" parent="1">
          <mxGeometry x="499.25" y="230" width="40" height="30" as="geometry" />
        </mxCell>
        <mxCell id="_EmFWARxrRoBnIJLhe-P-30" value="" style="edgeStyle=orthogonalEdgeStyle;rounded=0;orthogonalLoop=1;jettySize=auto;html=1;exitX=1;exitY=0.5;exitDx=0;exitDy=0;exitPerimeter=0;entryX=0.5;entryY=0;entryDx=0;entryDy=0;" edge="1" parent="1" source="_EmFWARxrRoBnIJLhe-P-21" target="_EmFWARxrRoBnIJLhe-P-31">
          <mxGeometry relative="1" as="geometry">
            <mxPoint x="476.25" y="230" as="sourcePoint" />
            <mxPoint x="682.25" y="390" as="targetPoint" />
            <Array as="points" />
          </mxGeometry>
        </mxCell>
        <mxCell id="_EmFWARxrRoBnIJLhe-P-31" value="Carregar informações do cliente (nome, telefone...)" style="rounded=1;whiteSpace=wrap;html=1;absoluteArcSize=1;arcSize=14;strokeWidth=2;" vertex="1" parent="1">
          <mxGeometry x="499.25" y="315" width="163" height="50" as="geometry" />
        </mxCell>
        <mxCell id="_EmFWARxrRoBnIJLhe-P-32" style="edgeStyle=orthogonalEdgeStyle;rounded=0;orthogonalLoop=1;jettySize=auto;html=1;exitX=0.5;exitY=1;exitDx=0;exitDy=0;entryX=0.5;entryY=0;entryDx=0;entryDy=0;entryPerimeter=0;" edge="1" parent="1" source="_EmFWARxrRoBnIJLhe-P-1" target="_EmFWARxrRoBnIJLhe-P-21">
          <mxGeometry relative="1" as="geometry" />
        </mxCell>
        <mxCell id="_EmFWARxrRoBnIJLhe-P-44" style="edgeStyle=orthogonalEdgeStyle;rounded=0;orthogonalLoop=1;jettySize=auto;html=1;exitX=0;exitY=0.5;exitDx=0;exitDy=0;exitPerimeter=0;entryX=0.5;entryY=0;entryDx=0;entryDy=0;entryPerimeter=0;" edge="1" parent="1" source="_EmFWARxrRoBnIJLhe-P-35" target="_EmFWARxrRoBnIJLhe-P-49">
          <mxGeometry relative="1" as="geometry">
            <mxPoint x="270" y="975" as="targetPoint" />
          </mxGeometry>
        </mxCell>
        <mxCell id="_EmFWARxrRoBnIJLhe-P-35" value="ATENDENTE:&lt;div&gt;Tipo da entrega&lt;/div&gt;" style="strokeWidth=2;html=1;shape=mxgraph.flowchart.decision;whiteSpace=wrap;" vertex="1" parent="1">
          <mxGeometry x="358.75" y="805" width="130.5" height="90" as="geometry" />
        </mxCell>
        <mxCell id="_EmFWARxrRoBnIJLhe-P-36" value="Carregar data atual como data de entrega" style="rounded=1;whiteSpace=wrap;html=1;absoluteArcSize=1;arcSize=14;strokeWidth=2;" vertex="1" parent="1">
          <mxGeometry x="510.75" y="540" width="161.5" height="60" as="geometry" />
        </mxCell>
        <mxCell id="_EmFWARxrRoBnIJLhe-P-38" value="&quot;Expresso&quot;" style="text;html=1;align=center;verticalAlign=middle;resizable=0;points=[];autosize=1;strokeColor=none;fillColor=none;" vertex="1" parent="1">
          <mxGeometry x="481.13" y="485" width="80" height="30" as="geometry" />
        </mxCell>
        <mxCell id="_EmFWARxrRoBnIJLhe-P-39" style="edgeStyle=orthogonalEdgeStyle;rounded=0;orthogonalLoop=1;jettySize=auto;html=1;exitX=0.5;exitY=1;exitDx=0;exitDy=0;entryX=0;entryY=0.5;entryDx=0;entryDy=0;entryPerimeter=0;" edge="1" parent="1" source="_EmFWARxrRoBnIJLhe-P-9" target="_EmFWARxrRoBnIJLhe-P-42">
          <mxGeometry relative="1" as="geometry" />
        </mxCell>
        <mxCell id="_EmFWARxrRoBnIJLhe-P-40" style="edgeStyle=orthogonalEdgeStyle;rounded=0;orthogonalLoop=1;jettySize=auto;html=1;exitX=0.5;exitY=1;exitDx=0;exitDy=0;entryX=1;entryY=0.5;entryDx=0;entryDy=0;entryPerimeter=0;" edge="1" parent="1" source="_EmFWARxrRoBnIJLhe-P-36" target="_EmFWARxrRoBnIJLhe-P-42">
          <mxGeometry relative="1" as="geometry" />
        </mxCell>
        <mxCell id="_EmFWARxrRoBnIJLhe-P-93" style="edgeStyle=orthogonalEdgeStyle;rounded=0;orthogonalLoop=1;jettySize=auto;html=1;entryX=0.5;entryY=0;entryDx=0;entryDy=0;" edge="1" parent="1" source="_EmFWARxrRoBnIJLhe-P-42" target="_EmFWARxrRoBnIJLhe-P-15">
          <mxGeometry relative="1" as="geometry" />
        </mxCell>
        <mxCell id="_EmFWARxrRoBnIJLhe-P-42" value="" style="verticalLabelPosition=bottom;verticalAlign=top;html=1;shape=mxgraph.flowchart.or;" vertex="1" parent="1">
          <mxGeometry x="411.13" y="635" width="31" height="30" as="geometry" />
        </mxCell>
        <mxCell id="_EmFWARxrRoBnIJLhe-P-45" value="&quot;Remota&quot;" style="text;html=1;align=center;verticalAlign=middle;resizable=0;points=[];autosize=1;strokeColor=none;fillColor=none;" vertex="1" parent="1">
          <mxGeometry x="299.5" y="823" width="70" height="30" as="geometry" />
        </mxCell>
        <mxCell id="_EmFWARxrRoBnIJLhe-P-47" value="&quot;Presencial&quot;" style="text;html=1;align=center;verticalAlign=middle;resizable=0;points=[];autosize=1;strokeColor=none;fillColor=none;" vertex="1" parent="1">
          <mxGeometry x="478.5" y="823" width="90" height="30" as="geometry" />
        </mxCell>
        <mxCell id="_EmFWARxrRoBnIJLhe-P-53" style="edgeStyle=orthogonalEdgeStyle;rounded=0;orthogonalLoop=1;jettySize=auto;html=1;exitX=0;exitY=0.5;exitDx=0;exitDy=0;exitPerimeter=0;entryX=0.5;entryY=0;entryDx=0;entryDy=0;" edge="1" parent="1" source="_EmFWARxrRoBnIJLhe-P-49" target="_EmFWARxrRoBnIJLhe-P-10">
          <mxGeometry relative="1" as="geometry">
            <mxPoint x="46" y="1095" as="targetPoint" />
          </mxGeometry>
        </mxCell>
        <mxCell id="_EmFWARxrRoBnIJLhe-P-73" style="edgeStyle=orthogonalEdgeStyle;rounded=0;orthogonalLoop=1;jettySize=auto;html=1;exitX=1;exitY=0.5;exitDx=0;exitDy=0;exitPerimeter=0;entryX=0.5;entryY=0;entryDx=0;entryDy=0;" edge="1" parent="1" source="_EmFWARxrRoBnIJLhe-P-49" target="_EmFWARxrRoBnIJLhe-P-72">
          <mxGeometry relative="1" as="geometry" />
        </mxCell>
        <mxCell id="_EmFWARxrRoBnIJLhe-P-49" value="SISTEMA:&lt;div&gt;Cliente inserido&lt;/div&gt;" style="strokeWidth=2;html=1;shape=mxgraph.flowchart.decision;whiteSpace=wrap;fillColor=#dae8fc;strokeColor=#6c8ebf;" vertex="1" parent="1">
          <mxGeometry x="142.75" y="906" width="134.5" height="90" as="geometry" />
        </mxCell>
        <mxCell id="_EmFWARxrRoBnIJLhe-P-51" value="Já cadastrado" style="text;html=1;align=center;verticalAlign=middle;resizable=0;points=[];autosize=1;strokeColor=none;fillColor=none;" vertex="1" parent="1">
          <mxGeometry x="251" y="914" width="100" height="30" as="geometry" />
        </mxCell>
        <mxCell id="_EmFWARxrRoBnIJLhe-P-54" value="Novo cliente" style="text;html=1;align=center;verticalAlign=middle;resizable=0;points=[];autosize=1;strokeColor=none;fillColor=none;" vertex="1" parent="1">
          <mxGeometry x="70" y="918" width="90" height="30" as="geometry" />
        </mxCell>
        <mxCell id="_EmFWARxrRoBnIJLhe-P-76" style="edgeStyle=orthogonalEdgeStyle;rounded=0;orthogonalLoop=1;jettySize=auto;html=1;entryX=0.5;entryY=0;entryDx=0;entryDy=0;exitX=0.5;exitY=1;exitDx=0;exitDy=0;exitPerimeter=0;" edge="1" parent="1" source="_EmFWARxrRoBnIJLhe-P-55" target="_EmFWARxrRoBnIJLhe-P-78">
          <mxGeometry relative="1" as="geometry">
            <mxPoint x="-251" y="1285" as="targetPoint" />
            <mxPoint x="-292" y="1230" as="sourcePoint" />
          </mxGeometry>
        </mxCell>
        <mxCell id="_EmFWARxrRoBnIJLhe-P-55" value="ATENDENTE:&lt;div&gt;Destinatário diferente do solicitante?&lt;/div&gt;" style="strokeWidth=2;html=1;shape=mxgraph.flowchart.decision;whiteSpace=wrap;fillColor=#d5e8d4;strokeColor=#82b366;" vertex="1" parent="1">
          <mxGeometry x="-39.629999999999995" y="1090" width="175.25" height="90" as="geometry" />
        </mxCell>
        <mxCell id="_EmFWARxrRoBnIJLhe-P-57" value="Sim" style="text;html=1;align=center;verticalAlign=middle;resizable=0;points=[];autosize=1;strokeColor=none;fillColor=none;" vertex="1" parent="1">
          <mxGeometry x="128.5" y="1110" width="40" height="30" as="geometry" />
        </mxCell>
        <mxCell id="_EmFWARxrRoBnIJLhe-P-72" value="Carregar endereço de entrega do cliente" style="rounded=1;whiteSpace=wrap;html=1;absoluteArcSize=1;arcSize=14;strokeWidth=2;" vertex="1" parent="1">
          <mxGeometry x="292.13" y="978" width="142" height="50" as="geometry" />
        </mxCell>
        <mxCell id="_EmFWARxrRoBnIJLhe-P-74" style="edgeStyle=orthogonalEdgeStyle;rounded=0;orthogonalLoop=1;jettySize=auto;html=1;exitX=0.5;exitY=1;exitDx=0;exitDy=0;entryX=1;entryY=0.5;entryDx=0;entryDy=0;entryPerimeter=0;" edge="1" parent="1" source="_EmFWARxrRoBnIJLhe-P-31" target="_EmFWARxrRoBnIJLhe-P-22">
          <mxGeometry relative="1" as="geometry">
            <mxPoint x="659.375" y="360" as="targetPoint" />
          </mxGeometry>
        </mxCell>
        <mxCell id="_EmFWARxrRoBnIJLhe-P-75" style="edgeStyle=orthogonalEdgeStyle;rounded=0;orthogonalLoop=1;jettySize=auto;html=1;entryX=0.5;entryY=0;entryDx=0;entryDy=0;entryPerimeter=0;" edge="1" parent="1" source="_EmFWARxrRoBnIJLhe-P-10" target="_EmFWARxrRoBnIJLhe-P-55">
          <mxGeometry relative="1" as="geometry" />
        </mxCell>
        <mxCell id="_EmFWARxrRoBnIJLhe-P-77" value="Não" style="text;html=1;align=center;verticalAlign=middle;resizable=0;points=[];autosize=1;strokeColor=none;fillColor=none;" vertex="1" parent="1">
          <mxGeometry y="1255" width="50" height="30" as="geometry" />
        </mxCell>
        <mxCell id="_EmFWARxrRoBnIJLhe-P-78" value="Carregar informações do cliente inserido como destinatário" style="rounded=1;whiteSpace=wrap;html=1;absoluteArcSize=1;arcSize=14;strokeWidth=2;" vertex="1" parent="1">
          <mxGeometry x="-22.51" y="1440" width="141" height="50" as="geometry" />
        </mxCell>
        <mxCell id="_EmFWARxrRoBnIJLhe-P-91" style="edgeStyle=orthogonalEdgeStyle;rounded=0;orthogonalLoop=1;jettySize=auto;html=1;exitX=0.5;exitY=1;exitDx=0;exitDy=0;exitPerimeter=0;entryX=0.5;entryY=0;entryDx=0;entryDy=0;entryPerimeter=0;" edge="1" parent="1" source="_EmFWARxrRoBnIJLhe-P-79" target="_EmFWARxrRoBnIJLhe-P-84">
          <mxGeometry relative="1" as="geometry">
            <mxPoint x="525.13" y="1235" as="targetPoint" />
          </mxGeometry>
        </mxCell>
        <mxCell id="_EmFWARxrRoBnIJLhe-P-79" value="ATENDENTE:&lt;div&gt;Destinatário diferente do solicitante?&lt;/div&gt;" style="strokeWidth=2;html=1;shape=mxgraph.flowchart.decision;whiteSpace=wrap;fillColor=#d5e8d4;strokeColor=#82b366;" vertex="1" parent="1">
          <mxGeometry x="276" y="1090" width="174.25" height="90" as="geometry" />
        </mxCell>
        <mxCell id="_EmFWARxrRoBnIJLhe-P-80" style="edgeStyle=orthogonalEdgeStyle;rounded=0;orthogonalLoop=1;jettySize=auto;html=1;exitX=0.5;exitY=1;exitDx=0;exitDy=0;entryX=0.5;entryY=0;entryDx=0;entryDy=0;entryPerimeter=0;" edge="1" parent="1" source="_EmFWARxrRoBnIJLhe-P-72" target="_EmFWARxrRoBnIJLhe-P-79">
          <mxGeometry relative="1" as="geometry" />
        </mxCell>
        <mxCell id="_EmFWARxrRoBnIJLhe-P-82" style="edgeStyle=orthogonalEdgeStyle;rounded=0;orthogonalLoop=1;jettySize=auto;html=1;exitX=0.5;exitY=1;exitDx=0;exitDy=0;exitPerimeter=0;entryX=0.5;entryY=0;entryDx=0;entryDy=0;" edge="1" parent="1" source="_EmFWARxrRoBnIJLhe-P-84" target="_EmFWARxrRoBnIJLhe-P-86">
          <mxGeometry relative="1" as="geometry">
            <mxPoint x="363.76" y="1495" as="targetPoint" />
          </mxGeometry>
        </mxCell>
        <mxCell id="_EmFWARxrRoBnIJLhe-P-83" style="edgeStyle=orthogonalEdgeStyle;rounded=0;orthogonalLoop=1;jettySize=auto;html=1;exitX=1;exitY=0.5;exitDx=0;exitDy=0;exitPerimeter=0;entryX=0;entryY=0.5;entryDx=0;entryDy=0;entryPerimeter=0;" edge="1" parent="1" source="_EmFWARxrRoBnIJLhe-P-84" target="_EmFWARxrRoBnIJLhe-P-205">
          <mxGeometry relative="1" as="geometry">
            <mxPoint x="622.6299999999997" y="1340" as="targetPoint" />
          </mxGeometry>
        </mxCell>
        <mxCell id="_EmFWARxrRoBnIJLhe-P-84" value="SISTEMA:&lt;div&gt;Cliente possui destinatário cadastrado?&lt;/div&gt;" style="strokeWidth=2;html=1;shape=mxgraph.flowchart.decision;whiteSpace=wrap;fillColor=#ffe6cc;strokeColor=#d79b00;" vertex="1" parent="1">
          <mxGeometry x="276" y="1220" width="174.25" height="90" as="geometry" />
        </mxCell>
        <mxCell id="_EmFWARxrRoBnIJLhe-P-85" value="Sim" style="text;html=1;align=center;verticalAlign=middle;resizable=0;points=[];autosize=1;strokeColor=none;fillColor=none;" vertex="1" parent="1">
          <mxGeometry x="319.13" y="1310" width="40" height="30" as="geometry" />
        </mxCell>
        <mxCell id="_EmFWARxrRoBnIJLhe-P-86" value="Carregar informações de destinatário" style="rounded=1;whiteSpace=wrap;html=1;absoluteArcSize=1;arcSize=14;strokeWidth=2;" vertex="1" parent="1">
          <mxGeometry x="293.13" y="1510" width="140" height="50" as="geometry" />
        </mxCell>
        <mxCell id="_EmFWARxrRoBnIJLhe-P-87" value="Não&lt;div&gt;&lt;br&gt;&lt;/div&gt;" style="text;html=1;align=center;verticalAlign=middle;resizable=0;points=[];autosize=1;strokeColor=none;fillColor=none;" vertex="1" parent="1">
          <mxGeometry x="437.76" y="1238" width="50" height="40" as="geometry" />
        </mxCell>
        <mxCell id="_EmFWARxrRoBnIJLhe-P-92" value="Não" style="text;html=1;align=center;verticalAlign=middle;resizable=0;points=[];autosize=1;strokeColor=none;fillColor=none;" vertex="1" parent="1">
          <mxGeometry x="358.5" y="1180" width="50" height="30" as="geometry" />
        </mxCell>
        <mxCell id="_EmFWARxrRoBnIJLhe-P-94" style="edgeStyle=orthogonalEdgeStyle;rounded=0;orthogonalLoop=1;jettySize=auto;html=1;exitX=0.5;exitY=1;exitDx=0;exitDy=0;entryX=0.5;entryY=0;entryDx=0;entryDy=0;entryPerimeter=0;" edge="1" parent="1" source="_EmFWARxrRoBnIJLhe-P-15" target="_EmFWARxrRoBnIJLhe-P-35">
          <mxGeometry relative="1" as="geometry" />
        </mxCell>
        <mxCell id="_EmFWARxrRoBnIJLhe-P-158" style="edgeStyle=orthogonalEdgeStyle;rounded=0;orthogonalLoop=1;jettySize=auto;html=1;entryX=0.5;entryY=0;entryDx=0;entryDy=0;exitX=0.502;exitY=0.968;exitDx=0;exitDy=0;exitPerimeter=0;" edge="1" parent="1" source="_EmFWARxrRoBnIJLhe-P-160" target="_EmFWARxrRoBnIJLhe-P-11">
          <mxGeometry relative="1" as="geometry">
            <mxPoint x="225.5" y="1236" as="sourcePoint" />
          </mxGeometry>
        </mxCell>
        <mxCell id="_EmFWARxrRoBnIJLhe-P-154" style="edgeStyle=orthogonalEdgeStyle;rounded=0;orthogonalLoop=1;jettySize=auto;html=1;exitX=1;exitY=0.5;exitDx=0;exitDy=0;exitPerimeter=0;entryX=0;entryY=0.5;entryDx=0;entryDy=0;entryPerimeter=0;" edge="1" parent="1" source="_EmFWARxrRoBnIJLhe-P-55" target="_EmFWARxrRoBnIJLhe-P-160">
          <mxGeometry relative="1" as="geometry">
            <mxPoint x="210" y="1221" as="targetPoint" />
          </mxGeometry>
        </mxCell>
        <mxCell id="_EmFWARxrRoBnIJLhe-P-157" value="Sim" style="text;html=1;align=center;verticalAlign=middle;resizable=0;points=[];autosize=1;strokeColor=none;fillColor=none;" vertex="1" parent="1">
          <mxGeometry x="239.88" y="1110" width="40" height="30" as="geometry" />
        </mxCell>
        <mxCell id="_EmFWARxrRoBnIJLhe-P-160" value="" style="verticalLabelPosition=bottom;verticalAlign=top;html=1;shape=mxgraph.flowchart.or;" vertex="1" parent="1">
          <mxGeometry x="194.5" y="1120" width="31" height="30" as="geometry" />
        </mxCell>
        <mxCell id="_EmFWARxrRoBnIJLhe-P-162" style="edgeStyle=orthogonalEdgeStyle;rounded=0;orthogonalLoop=1;jettySize=auto;html=1;exitX=0;exitY=0.5;exitDx=0;exitDy=0;exitPerimeter=0;entryX=0.968;entryY=0.499;entryDx=0;entryDy=0;entryPerimeter=0;" edge="1" parent="1" source="_EmFWARxrRoBnIJLhe-P-79" target="_EmFWARxrRoBnIJLhe-P-160">
          <mxGeometry relative="1" as="geometry" />
        </mxCell>
        <mxCell id="_EmFWARxrRoBnIJLhe-P-165" style="edgeStyle=orthogonalEdgeStyle;rounded=0;orthogonalLoop=1;jettySize=auto;html=1;exitX=0.5;exitY=1;exitDx=0;exitDy=0;exitPerimeter=0;entryX=0.5;entryY=0;entryDx=0;entryDy=0;entryPerimeter=0;" edge="1" parent="1" source="_EmFWARxrRoBnIJLhe-P-167" target="_EmFWARxrRoBnIJLhe-P-171">
          <mxGeometry relative="1" as="geometry">
            <mxPoint x="585" y="1030" as="targetPoint" />
          </mxGeometry>
        </mxCell>
        <mxCell id="_EmFWARxrRoBnIJLhe-P-166" style="edgeStyle=orthogonalEdgeStyle;rounded=0;orthogonalLoop=1;jettySize=auto;html=1;exitX=1;exitY=0.5;exitDx=0;exitDy=0;exitPerimeter=0;entryX=0.5;entryY=0;entryDx=0;entryDy=0;entryPerimeter=0;" edge="1" parent="1" source="_EmFWARxrRoBnIJLhe-P-167" target="_EmFWARxrRoBnIJLhe-P-178">
          <mxGeometry relative="1" as="geometry">
            <mxPoint x="965" y="1040" as="targetPoint" />
          </mxGeometry>
        </mxCell>
        <mxCell id="_EmFWARxrRoBnIJLhe-P-167" value="SISTEMA:&lt;div&gt;Cliente inserido&lt;/div&gt;" style="strokeWidth=2;html=1;shape=mxgraph.flowchart.decision;whiteSpace=wrap;fillColor=#dae8fc;strokeColor=#6c8ebf;" vertex="1" parent="1">
          <mxGeometry x="517.75" y="888" width="134.5" height="90" as="geometry" />
        </mxCell>
        <mxCell id="_EmFWARxrRoBnIJLhe-P-168" value="Já cadastrado" style="text;html=1;align=center;verticalAlign=middle;resizable=0;points=[];autosize=1;strokeColor=none;fillColor=none;" vertex="1" parent="1">
          <mxGeometry x="626" y="896" width="100" height="30" as="geometry" />
        </mxCell>
        <mxCell id="_EmFWARxrRoBnIJLhe-P-169" value="Novo cliente" style="text;html=1;align=center;verticalAlign=middle;resizable=0;points=[];autosize=1;strokeColor=none;fillColor=none;" vertex="1" parent="1">
          <mxGeometry x="497" y="966" width="90" height="30" as="geometry" />
        </mxCell>
        <mxCell id="_EmFWARxrRoBnIJLhe-P-170" style="edgeStyle=orthogonalEdgeStyle;rounded=0;orthogonalLoop=1;jettySize=auto;html=1;exitX=0.5;exitY=1;exitDx=0;exitDy=0;exitPerimeter=0;entryX=0.5;entryY=0;entryDx=0;entryDy=0;entryPerimeter=0;" edge="1" parent="1" source="_EmFWARxrRoBnIJLhe-P-171" target="_EmFWARxrRoBnIJLhe-P-205">
          <mxGeometry relative="1" as="geometry">
            <mxPoint x="755" y="1473" as="targetPoint" />
            <mxPoint x="415" y="1230" as="sourcePoint" />
          </mxGeometry>
        </mxCell>
        <mxCell id="_EmFWARxrRoBnIJLhe-P-171" value="ATENDENTE:&lt;div&gt;Destinatário diferente do solicitante?&lt;/div&gt;" style="strokeWidth=2;html=1;shape=mxgraph.flowchart.decision;whiteSpace=wrap;fillColor=#d5e8d4;strokeColor=#82b366;" vertex="1" parent="1">
          <mxGeometry x="497" y="1030" width="175.25" height="90" as="geometry" />
        </mxCell>
        <mxCell id="_EmFWARxrRoBnIJLhe-P-172" value="Sim" style="text;html=1;align=center;verticalAlign=middle;resizable=0;points=[];autosize=1;strokeColor=none;fillColor=none;" vertex="1" parent="1">
          <mxGeometry x="666.62" y="1045" width="40" height="30" as="geometry" />
        </mxCell>
        <mxCell id="_EmFWARxrRoBnIJLhe-P-175" value="Não" style="text;html=1;align=center;verticalAlign=middle;resizable=0;points=[];autosize=1;strokeColor=none;fillColor=none;" vertex="1" parent="1">
          <mxGeometry x="536.62" y="1110" width="50" height="30" as="geometry" />
        </mxCell>
        <mxCell id="_EmFWARxrRoBnIJLhe-P-177" style="edgeStyle=orthogonalEdgeStyle;rounded=0;orthogonalLoop=1;jettySize=auto;html=1;exitX=0.5;exitY=1;exitDx=0;exitDy=0;exitPerimeter=0;entryX=0.5;entryY=0;entryDx=0;entryDy=0;entryPerimeter=0;" edge="1" parent="1" source="_EmFWARxrRoBnIJLhe-P-178" target="_EmFWARxrRoBnIJLhe-P-182">
          <mxGeometry relative="1" as="geometry">
            <mxPoint x="1126.62" y="1090" as="targetPoint" />
          </mxGeometry>
        </mxCell>
        <mxCell id="_EmFWARxrRoBnIJLhe-P-178" value="ATENDENTE:&lt;div&gt;Destinatário diferente do solicitante?&lt;/div&gt;" style="strokeWidth=2;html=1;shape=mxgraph.flowchart.decision;whiteSpace=wrap;fillColor=#d5e8d4;strokeColor=#82b366;" vertex="1" parent="1">
          <mxGeometry x="878.2399999999998" y="1030" width="174.25" height="90" as="geometry" />
        </mxCell>
        <mxCell id="_EmFWARxrRoBnIJLhe-P-180" style="edgeStyle=orthogonalEdgeStyle;rounded=0;orthogonalLoop=1;jettySize=auto;html=1;exitX=0.5;exitY=1;exitDx=0;exitDy=0;exitPerimeter=0;entryX=1;entryY=0.5;entryDx=0;entryDy=0;" edge="1" parent="1" source="_EmFWARxrRoBnIJLhe-P-182" target="_EmFWARxrRoBnIJLhe-P-86">
          <mxGeometry relative="1" as="geometry">
            <mxPoint x="1217.9899999999998" y="1570" as="targetPoint" />
          </mxGeometry>
        </mxCell>
        <mxCell id="_EmFWARxrRoBnIJLhe-P-181" style="edgeStyle=orthogonalEdgeStyle;rounded=0;orthogonalLoop=1;jettySize=auto;html=1;exitX=0;exitY=0.5;exitDx=0;exitDy=0;exitPerimeter=0;entryX=1;entryY=0.5;entryDx=0;entryDy=0;entryPerimeter=0;" edge="1" parent="1" source="_EmFWARxrRoBnIJLhe-P-182" target="_EmFWARxrRoBnIJLhe-P-205">
          <mxGeometry relative="1" as="geometry">
            <mxPoint x="1329.63" y="1375" as="targetPoint" />
          </mxGeometry>
        </mxCell>
        <mxCell id="_EmFWARxrRoBnIJLhe-P-182" value="SISTEMA:&lt;div&gt;Cliente possui destinatário cadastrado?&lt;/div&gt;" style="strokeWidth=2;html=1;shape=mxgraph.flowchart.decision;whiteSpace=wrap;fillColor=#ffe6cc;strokeColor=#d79b00;" vertex="1" parent="1">
          <mxGeometry x="878.2399999999998" y="1220" width="174.25" height="90" as="geometry" />
        </mxCell>
        <mxCell id="_EmFWARxrRoBnIJLhe-P-183" value="Sim" style="text;html=1;align=center;verticalAlign=middle;resizable=0;points=[];autosize=1;strokeColor=none;fillColor=none;" vertex="1" parent="1">
          <mxGeometry x="921.3699999999999" y="1310" width="40" height="30" as="geometry" />
        </mxCell>
        <mxCell id="_EmFWARxrRoBnIJLhe-P-185" value="Não&lt;div&gt;&lt;br&gt;&lt;/div&gt;" style="text;html=1;align=center;verticalAlign=middle;resizable=0;points=[];autosize=1;strokeColor=none;fillColor=none;" vertex="1" parent="1">
          <mxGeometry x="828.24" y="1235" width="50" height="40" as="geometry" />
        </mxCell>
        <mxCell id="_EmFWARxrRoBnIJLhe-P-187" value="Não" style="text;html=1;align=center;verticalAlign=middle;resizable=0;points=[];autosize=1;strokeColor=none;fillColor=none;" vertex="1" parent="1">
          <mxGeometry x="960.6199999999999" y="1120" width="50" height="30" as="geometry" />
        </mxCell>
        <mxCell id="_EmFWARxrRoBnIJLhe-P-188" style="edgeStyle=orthogonalEdgeStyle;rounded=0;orthogonalLoop=1;jettySize=auto;html=1;entryX=1;entryY=0.5;entryDx=0;entryDy=0;exitX=0.502;exitY=0.968;exitDx=0;exitDy=0;exitPerimeter=0;" edge="1" parent="1" source="_EmFWARxrRoBnIJLhe-P-191" target="_EmFWARxrRoBnIJLhe-P-11">
          <mxGeometry relative="1" as="geometry">
            <mxPoint x="1015.5" y="1236" as="sourcePoint" />
            <mxPoint x="1015.5" y="1565" as="targetPoint" />
          </mxGeometry>
        </mxCell>
        <mxCell id="_EmFWARxrRoBnIJLhe-P-189" style="edgeStyle=orthogonalEdgeStyle;rounded=0;orthogonalLoop=1;jettySize=auto;html=1;exitX=1;exitY=0.5;exitDx=0;exitDy=0;exitPerimeter=0;entryX=0;entryY=0.5;entryDx=0;entryDy=0;entryPerimeter=0;" edge="1" parent="1" source="_EmFWARxrRoBnIJLhe-P-171" target="_EmFWARxrRoBnIJLhe-P-191">
          <mxGeometry relative="1" as="geometry">
            <mxPoint x="746.62" y="1076" as="targetPoint" />
          </mxGeometry>
        </mxCell>
        <mxCell id="_EmFWARxrRoBnIJLhe-P-190" value="Sim" style="text;html=1;align=center;verticalAlign=middle;resizable=0;points=[];autosize=1;strokeColor=none;fillColor=none;" vertex="1" parent="1">
          <mxGeometry x="847.6199999999999" y="1030" width="40" height="30" as="geometry" />
        </mxCell>
        <mxCell id="_EmFWARxrRoBnIJLhe-P-191" value="" style="verticalLabelPosition=bottom;verticalAlign=top;html=1;shape=mxgraph.flowchart.or;" vertex="1" parent="1">
          <mxGeometry x="746.62" y="1060" width="31" height="30" as="geometry" />
        </mxCell>
        <mxCell id="_EmFWARxrRoBnIJLhe-P-192" style="edgeStyle=orthogonalEdgeStyle;rounded=0;orthogonalLoop=1;jettySize=auto;html=1;exitX=0;exitY=0.5;exitDx=0;exitDy=0;exitPerimeter=0;entryX=0.968;entryY=0.499;entryDx=0;entryDy=0;entryPerimeter=0;" edge="1" parent="1" source="_EmFWARxrRoBnIJLhe-P-178" target="_EmFWARxrRoBnIJLhe-P-191">
          <mxGeometry relative="1" as="geometry" />
        </mxCell>
        <mxCell id="_EmFWARxrRoBnIJLhe-P-193" style="edgeStyle=orthogonalEdgeStyle;rounded=0;orthogonalLoop=1;jettySize=auto;html=1;exitX=1;exitY=0.5;exitDx=0;exitDy=0;exitPerimeter=0;entryX=0.5;entryY=0;entryDx=0;entryDy=0;entryPerimeter=0;" edge="1" parent="1" source="_EmFWARxrRoBnIJLhe-P-35" target="_EmFWARxrRoBnIJLhe-P-167">
          <mxGeometry relative="1" as="geometry" />
        </mxCell>
        <mxCell id="_EmFWARxrRoBnIJLhe-P-206" style="edgeStyle=orthogonalEdgeStyle;rounded=0;orthogonalLoop=1;jettySize=auto;html=1;exitX=0.5;exitY=1;exitDx=0;exitDy=0;exitPerimeter=0;entryX=1;entryY=0.5;entryDx=0;entryDy=0;" edge="1" parent="1" source="_EmFWARxrRoBnIJLhe-P-205" target="_EmFWARxrRoBnIJLhe-P-78">
          <mxGeometry relative="1" as="geometry" />
        </mxCell>
        <mxCell id="_EmFWARxrRoBnIJLhe-P-205" value="" style="verticalLabelPosition=bottom;verticalAlign=top;html=1;shape=mxgraph.flowchart.or;" vertex="1" parent="1">
          <mxGeometry x="569.5" y="1250" width="31" height="30" as="geometry" />
        </mxCell>
        <mxCell id="_EmFWARxrRoBnIJLhe-P-213" style="edgeStyle=orthogonalEdgeStyle;rounded=0;orthogonalLoop=1;jettySize=auto;html=1;exitX=0.5;exitY=1;exitDx=0;exitDy=0;exitPerimeter=0;entryX=0.5;entryY=0;entryDx=0;entryDy=0;" edge="1" parent="1" source="_EmFWARxrRoBnIJLhe-P-208" target="_EmFWARxrRoBnIJLhe-P-212">
          <mxGeometry relative="1" as="geometry" />
        </mxCell>
        <mxCell id="_EmFWARxrRoBnIJLhe-P-208" value="" style="verticalLabelPosition=bottom;verticalAlign=top;html=1;shape=mxgraph.flowchart.or;" vertex="1" parent="1">
          <mxGeometry x="194.75" y="1580" width="31" height="30" as="geometry" />
        </mxCell>
        <mxCell id="_EmFWARxrRoBnIJLhe-P-209" style="edgeStyle=orthogonalEdgeStyle;rounded=0;orthogonalLoop=1;jettySize=auto;html=1;exitX=0.5;exitY=1;exitDx=0;exitDy=0;entryX=0.5;entryY=0;entryDx=0;entryDy=0;entryPerimeter=0;" edge="1" parent="1" source="_EmFWARxrRoBnIJLhe-P-11" target="_EmFWARxrRoBnIJLhe-P-208">
          <mxGeometry relative="1" as="geometry" />
        </mxCell>
        <mxCell id="_EmFWARxrRoBnIJLhe-P-210" style="edgeStyle=orthogonalEdgeStyle;rounded=0;orthogonalLoop=1;jettySize=auto;html=1;exitX=0.5;exitY=1;exitDx=0;exitDy=0;entryX=1;entryY=0.5;entryDx=0;entryDy=0;entryPerimeter=0;" edge="1" parent="1" source="_EmFWARxrRoBnIJLhe-P-86" target="_EmFWARxrRoBnIJLhe-P-208">
          <mxGeometry relative="1" as="geometry" />
        </mxCell>
        <mxCell id="_EmFWARxrRoBnIJLhe-P-211" style="edgeStyle=orthogonalEdgeStyle;rounded=0;orthogonalLoop=1;jettySize=auto;html=1;exitX=0.5;exitY=1;exitDx=0;exitDy=0;entryX=0;entryY=0.5;entryDx=0;entryDy=0;entryPerimeter=0;" edge="1" parent="1" source="_EmFWARxrRoBnIJLhe-P-78" target="_EmFWARxrRoBnIJLhe-P-208">
          <mxGeometry relative="1" as="geometry" />
        </mxCell>
        <mxCell id="_EmFWARxrRoBnIJLhe-P-212" value="&lt;div&gt;&lt;br&gt;&lt;/div&gt;&lt;div&gt;&lt;span style=&quot;background-color: initial;&quot;&gt;Selecionar estado inicial do pedido&lt;/span&gt;&lt;br&gt;&lt;/div&gt;" style="html=1;strokeWidth=2;shape=manualInput;whiteSpace=wrap;rounded=1;size=26;arcSize=11;" vertex="1" parent="1">
          <mxGeometry x="153.25" y="1650" width="114" height="80" as="geometry" />
        </mxCell>
        <mxCell id="_EmFWARxrRoBnIJLhe-P-214" value="FINALIZAR PEDIDO" style="strokeWidth=2;html=1;shape=mxgraph.flowchart.terminator;whiteSpace=wrap;" vertex="1" parent="1">
          <mxGeometry x="94.37" y="1780" width="231.25" height="60" as="geometry" />
        </mxCell>
        <mxCell id="_EmFWARxrRoBnIJLhe-P-215" style="edgeStyle=orthogonalEdgeStyle;rounded=0;orthogonalLoop=1;jettySize=auto;html=1;exitX=0.5;exitY=1;exitDx=0;exitDy=0;entryX=0.5;entryY=0;entryDx=0;entryDy=0;entryPerimeter=0;" edge="1" parent="1" source="_EmFWARxrRoBnIJLhe-P-212" target="_EmFWARxrRoBnIJLhe-P-214">
          <mxGeometry relative="1" as="geometry" />
        </mxCell>
        <mxCell id="_EmFWARxrRoBnIJLhe-P-216" value="&lt;h1&gt;&lt;font style=&quot;font-size: 32px;&quot;&gt;PROCESSO DE CRIAÇÃO DE PEDIDO&lt;/font&gt;&lt;/h1&gt;" style="text;html=1;align=center;verticalAlign=middle;whiteSpace=wrap;rounded=0;textShadow=1;" vertex="1" parent="1">
          <mxGeometry x="-178.51" y="140" width="401.76" height="160" as="geometry" />
        </mxCell>
      </root>
    </mxGraphModel>
  </diagram>
</mxfile>
